<mxfile host="app.diagrams.net" agent="Mozilla/5.0 (Windows NT 10.0; Win64; x64) AppleWebKit/537.36 (KHTML, like Gecko) Chrome/127.0.0.0 Safari/537.36" version="24.7.7">
  <diagram name="Page-1" id="K9QGtfdRGjKeO06Fc5tb">
    <mxGraphModel grid="1" page="0" gridSize="10" guides="1" tooltips="1" connect="1" arrows="1" fold="1" pageScale="1" pageWidth="850" pageHeight="1100" background="#e3cece" math="0" shadow="1">
      <root>
        <mxCell id="0" />
        <mxCell id="1" parent="0" />
        <mxCell id="RS90X-QFE5c7pqsLK3oR-22" style="edgeStyle=orthogonalEdgeStyle;rounded=0;orthogonalLoop=1;jettySize=auto;html=1;exitX=0;exitY=1;exitDx=0;exitDy=0;labelBackgroundColor=none;fontColor=default;" edge="1" parent="1" source="bsUdVHNC3CCLPIIl4j6s-2">
          <mxGeometry relative="1" as="geometry">
            <mxPoint x="-370" y="-90" as="targetPoint" />
          </mxGeometry>
        </mxCell>
        <mxCell id="RS90X-QFE5c7pqsLK3oR-40" style="edgeStyle=orthogonalEdgeStyle;rounded=0;orthogonalLoop=1;jettySize=auto;html=1;exitX=1;exitY=1;exitDx=0;exitDy=0;labelBackgroundColor=none;fontColor=default;" edge="1" parent="1" source="bsUdVHNC3CCLPIIl4j6s-2">
          <mxGeometry relative="1" as="geometry">
            <mxPoint x="170" y="-90" as="targetPoint" />
          </mxGeometry>
        </mxCell>
        <mxCell id="bsUdVHNC3CCLPIIl4j6s-2" value="B&lt;div style=&quot;font-size: 20px;&quot;&gt;Booking Your Ticket&lt;/div&gt;" style="rounded=0;whiteSpace=wrap;html=1;fontStyle=1;fontSize=20;labelBackgroundColor=none;fillColor=#647687;fontColor=#ffffff;strokeColor=#314354;" vertex="1" parent="1">
          <mxGeometry x="-190" y="-220" width="150" height="60" as="geometry" />
        </mxCell>
        <mxCell id="RS90X-QFE5c7pqsLK3oR-29" value="" style="edgeStyle=orthogonalEdgeStyle;rounded=0;orthogonalLoop=1;jettySize=auto;html=1;labelBackgroundColor=none;fontColor=default;" edge="1" parent="1" source="RS90X-QFE5c7pqsLK3oR-26" target="RS90X-QFE5c7pqsLK3oR-28">
          <mxGeometry relative="1" as="geometry" />
        </mxCell>
        <mxCell id="RS90X-QFE5c7pqsLK3oR-37" value="" style="edgeStyle=orthogonalEdgeStyle;rounded=0;orthogonalLoop=1;jettySize=auto;html=1;labelBackgroundColor=none;fontColor=default;" edge="1" parent="1" source="RS90X-QFE5c7pqsLK3oR-26" target="RS90X-QFE5c7pqsLK3oR-36">
          <mxGeometry relative="1" as="geometry" />
        </mxCell>
        <mxCell id="RS90X-QFE5c7pqsLK3oR-39" value="" style="edgeStyle=orthogonalEdgeStyle;rounded=0;orthogonalLoop=1;jettySize=auto;html=1;labelBackgroundColor=none;fontColor=default;" edge="1" parent="1" source="RS90X-QFE5c7pqsLK3oR-26" target="RS90X-QFE5c7pqsLK3oR-38">
          <mxGeometry relative="1" as="geometry" />
        </mxCell>
        <mxCell id="RS90X-QFE5c7pqsLK3oR-26" value="Kakkii" style="rounded=0;whiteSpace=wrap;html=1;fontStyle=1;fontSize=16;labelBackgroundColor=none;fillColor=#fad7ac;strokeColor=#b46504;" vertex="1" parent="1">
          <mxGeometry x="-470" y="-70" width="120" height="60" as="geometry" />
        </mxCell>
        <mxCell id="RS90X-QFE5c7pqsLK3oR-49" value="" style="edgeStyle=orthogonalEdgeStyle;rounded=0;orthogonalLoop=1;jettySize=auto;html=1;labelBackgroundColor=none;fontColor=default;" edge="1" parent="1" source="RS90X-QFE5c7pqsLK3oR-28" target="RS90X-QFE5c7pqsLK3oR-48">
          <mxGeometry relative="1" as="geometry" />
        </mxCell>
        <mxCell id="RS90X-QFE5c7pqsLK3oR-51" value="" style="edgeStyle=orthogonalEdgeStyle;rounded=0;orthogonalLoop=1;jettySize=auto;html=1;labelBackgroundColor=none;fontColor=default;" edge="1" parent="1" source="RS90X-QFE5c7pqsLK3oR-28" target="RS90X-QFE5c7pqsLK3oR-50">
          <mxGeometry relative="1" as="geometry" />
        </mxCell>
        <mxCell id="RS90X-QFE5c7pqsLK3oR-53" value="" style="edgeStyle=orthogonalEdgeStyle;rounded=0;orthogonalLoop=1;jettySize=auto;html=1;labelBackgroundColor=none;fontColor=default;" edge="1" parent="1" source="RS90X-QFE5c7pqsLK3oR-28" target="RS90X-QFE5c7pqsLK3oR-52">
          <mxGeometry relative="1" as="geometry" />
        </mxCell>
        <mxCell id="RS90X-QFE5c7pqsLK3oR-28" value="Sandya Theator" style="whiteSpace=wrap;html=1;rounded=0;fontStyle=1;labelBackgroundColor=none;fillColor=#b0e3e6;strokeColor=#0e8088;" vertex="1" parent="1">
          <mxGeometry x="-660" y="-70" width="120" height="60" as="geometry" />
        </mxCell>
        <mxCell id="RS90X-QFE5c7pqsLK3oR-36" value="Sudharshan Theator" style="whiteSpace=wrap;html=1;rounded=0;fontStyle=1;labelBackgroundColor=none;fillColor=#b0e3e6;strokeColor=#0e8088;" vertex="1" parent="1">
          <mxGeometry x="-270" y="-70" width="120" height="60" as="geometry" />
        </mxCell>
        <mxCell id="RS90X-QFE5c7pqsLK3oR-38" value="S&lt;div&gt;Order Food&lt;/div&gt;" style="whiteSpace=wrap;html=1;rounded=0;fontStyle=1;labelBackgroundColor=none;fillColor=#b0e3e6;strokeColor=#0e8088;" vertex="1" parent="1">
          <mxGeometry x="-470" y="70" width="120" height="60" as="geometry" />
        </mxCell>
        <mxCell id="RS90X-QFE5c7pqsLK3oR-43" value="" style="edgeStyle=orthogonalEdgeStyle;rounded=0;orthogonalLoop=1;jettySize=auto;html=1;labelBackgroundColor=none;fontColor=default;" edge="1" parent="1" source="RS90X-QFE5c7pqsLK3oR-41" target="RS90X-QFE5c7pqsLK3oR-42">
          <mxGeometry relative="1" as="geometry" />
        </mxCell>
        <mxCell id="RS90X-QFE5c7pqsLK3oR-45" value="" style="edgeStyle=orthogonalEdgeStyle;rounded=0;orthogonalLoop=1;jettySize=auto;html=1;labelBackgroundColor=none;fontColor=default;" edge="1" parent="1" source="RS90X-QFE5c7pqsLK3oR-41" target="RS90X-QFE5c7pqsLK3oR-44">
          <mxGeometry relative="1" as="geometry" />
        </mxCell>
        <mxCell id="RS90X-QFE5c7pqsLK3oR-47" value="" style="edgeStyle=orthogonalEdgeStyle;rounded=0;orthogonalLoop=1;jettySize=auto;html=1;labelBackgroundColor=none;fontColor=default;" edge="1" parent="1" source="RS90X-QFE5c7pqsLK3oR-41" target="RS90X-QFE5c7pqsLK3oR-46">
          <mxGeometry relative="1" as="geometry" />
        </mxCell>
        <mxCell id="RS90X-QFE5c7pqsLK3oR-41" value="Salaar" style="rounded=0;whiteSpace=wrap;html=1;fontSize=16;fontStyle=1;labelBackgroundColor=none;fillColor=#fad7ac;strokeColor=#b46504;" vertex="1" parent="1">
          <mxGeometry x="110" y="-80" width="120" height="60" as="geometry" />
        </mxCell>
        <mxCell id="RS90X-QFE5c7pqsLK3oR-42" value="Sandya Theator" style="whiteSpace=wrap;html=1;rounded=0;fontStyle=1;labelBackgroundColor=none;fillColor=#b0e3e6;strokeColor=#0e8088;" vertex="1" parent="1">
          <mxGeometry x="-90" y="-80" width="120" height="60" as="geometry" />
        </mxCell>
        <mxCell id="RS90X-QFE5c7pqsLK3oR-44" value="SudharShan Teator" style="whiteSpace=wrap;html=1;rounded=0;fontStyle=1;labelBackgroundColor=none;fillColor=#b0e3e6;strokeColor=#0e8088;" vertex="1" parent="1">
          <mxGeometry x="310" y="-80" width="120" height="60" as="geometry" />
        </mxCell>
        <mxCell id="RS90X-QFE5c7pqsLK3oR-71" value="" style="edgeStyle=orthogonalEdgeStyle;rounded=0;orthogonalLoop=1;jettySize=auto;html=1;labelBackgroundColor=none;fontColor=default;" edge="1" parent="1" source="RS90X-QFE5c7pqsLK3oR-46" target="RS90X-QFE5c7pqsLK3oR-70">
          <mxGeometry relative="1" as="geometry" />
        </mxCell>
        <mxCell id="RS90X-QFE5c7pqsLK3oR-73" value="" style="edgeStyle=orthogonalEdgeStyle;rounded=0;orthogonalLoop=1;jettySize=auto;html=1;labelBackgroundColor=none;fontColor=default;" edge="1" parent="1" source="RS90X-QFE5c7pqsLK3oR-46" target="RS90X-QFE5c7pqsLK3oR-72">
          <mxGeometry relative="1" as="geometry" />
        </mxCell>
        <mxCell id="RS90X-QFE5c7pqsLK3oR-75" value="" style="edgeStyle=orthogonalEdgeStyle;rounded=0;orthogonalLoop=1;jettySize=auto;html=1;labelBackgroundColor=none;fontColor=default;" edge="1" parent="1" source="RS90X-QFE5c7pqsLK3oR-46" target="RS90X-QFE5c7pqsLK3oR-74">
          <mxGeometry relative="1" as="geometry" />
        </mxCell>
        <mxCell id="RS90X-QFE5c7pqsLK3oR-46" value="S&lt;div&gt;Order Food&lt;/div&gt;" style="whiteSpace=wrap;html=1;rounded=0;fontStyle=1;labelBackgroundColor=none;fillColor=#b0e3e6;strokeColor=#0e8088;" vertex="1" parent="1">
          <mxGeometry x="110" y="60" width="120" height="60" as="geometry" />
        </mxCell>
        <mxCell id="RS90X-QFE5c7pqsLK3oR-48" value="B&lt;div&gt;Middle Class&lt;/div&gt;" style="ellipse;whiteSpace=wrap;html=1;rounded=0;fontStyle=1;labelBackgroundColor=none;fillColor=#6d8764;fontColor=#ffffff;strokeColor=#3A5431;" vertex="1" parent="1">
          <mxGeometry x="-840" y="-80" width="80" height="80" as="geometry" />
        </mxCell>
        <mxCell id="RS90X-QFE5c7pqsLK3oR-50" value="A&lt;div&gt;Balcony&lt;/div&gt;" style="ellipse;whiteSpace=wrap;html=1;rounded=0;fontStyle=1;labelBackgroundColor=none;fillColor=#6d8764;strokeColor=#3A5431;fontColor=#ffffff;" vertex="1" parent="1">
          <mxGeometry x="-640" y="-220" width="80" height="80" as="geometry" />
        </mxCell>
        <mxCell id="RS90X-QFE5c7pqsLK3oR-52" value="C&lt;div&gt;Low Class&lt;/div&gt;" style="ellipse;whiteSpace=wrap;html=1;rounded=0;fontStyle=1;labelBackgroundColor=none;fillColor=#6d8764;fontColor=#ffffff;strokeColor=#3A5431;" vertex="1" parent="1">
          <mxGeometry x="-640" y="60" width="80" height="80" as="geometry" />
        </mxCell>
        <mxCell id="RS90X-QFE5c7pqsLK3oR-70" value="1&lt;div&gt;Cool Drinks&lt;/div&gt;" style="ellipse;whiteSpace=wrap;html=1;rounded=0;fontStyle=1;labelBackgroundColor=none;fillColor=#6d8764;fontColor=#ffffff;strokeColor=#3A5431;" vertex="1" parent="1">
          <mxGeometry x="-70" y="50" width="80" height="80" as="geometry" />
        </mxCell>
        <mxCell id="RS90X-QFE5c7pqsLK3oR-72" value="2&lt;div&gt;Snaks&amp;nbsp;&lt;/div&gt;" style="ellipse;whiteSpace=wrap;html=1;rounded=0;fontStyle=1;labelBackgroundColor=none;fillColor=#6d8764;fontColor=#ffffff;strokeColor=#3A5431;" vertex="1" parent="1">
          <mxGeometry x="130" y="190" width="80" height="80" as="geometry" />
        </mxCell>
        <mxCell id="RS90X-QFE5c7pqsLK3oR-74" value="3&lt;div&gt;Conbo&lt;/div&gt;" style="ellipse;whiteSpace=wrap;html=1;rounded=0;fontStyle=1;labelBackgroundColor=none;fillColor=#6d8764;fontColor=#ffffff;strokeColor=#3A5431;" vertex="1" parent="1">
          <mxGeometry x="330" y="50" width="80" height="80" as="geometry" />
        </mxCell>
        <mxCell id="RS90X-QFE5c7pqsLK3oR-86" style="edgeStyle=orthogonalEdgeStyle;rounded=0;orthogonalLoop=1;jettySize=auto;html=1;exitX=0;exitY=0.5;exitDx=0;exitDy=0;entryX=0.5;entryY=0;entryDx=0;entryDy=0;labelBackgroundColor=none;fontColor=default;" edge="1" parent="1" source="RS90X-QFE5c7pqsLK3oR-83" target="bsUdVHNC3CCLPIIl4j6s-2">
          <mxGeometry relative="1" as="geometry" />
        </mxCell>
        <mxCell id="RS90X-QFE5c7pqsLK3oR-87" style="edgeStyle=orthogonalEdgeStyle;rounded=0;orthogonalLoop=1;jettySize=auto;html=1;exitX=0;exitY=1;exitDx=0;exitDy=0;labelBackgroundColor=none;fontColor=default;" edge="1" parent="1" source="RS90X-QFE5c7pqsLK3oR-83">
          <mxGeometry relative="1" as="geometry">
            <mxPoint x="770" y="-110" as="targetPoint" />
          </mxGeometry>
        </mxCell>
        <mxCell id="RS90X-QFE5c7pqsLK3oR-89" style="edgeStyle=orthogonalEdgeStyle;rounded=0;orthogonalLoop=1;jettySize=auto;html=1;exitX=1;exitY=1;exitDx=0;exitDy=0;labelBackgroundColor=none;fontColor=default;" edge="1" parent="1" source="RS90X-QFE5c7pqsLK3oR-83" target="RS90X-QFE5c7pqsLK3oR-90">
          <mxGeometry relative="1" as="geometry">
            <mxPoint x="1030" y="-110" as="targetPoint" />
          </mxGeometry>
        </mxCell>
        <mxCell id="RS90X-QFE5c7pqsLK3oR-99" style="edgeStyle=orthogonalEdgeStyle;rounded=0;orthogonalLoop=1;jettySize=auto;html=1;exitX=1;exitY=0.5;exitDx=0;exitDy=0;labelBackgroundColor=none;fontColor=default;" edge="1" parent="1" source="RS90X-QFE5c7pqsLK3oR-83" target="RS90X-QFE5c7pqsLK3oR-100">
          <mxGeometry relative="1" as="geometry">
            <mxPoint x="1710" y="-150" as="targetPoint" />
          </mxGeometry>
        </mxCell>
        <mxCell id="RS90X-QFE5c7pqsLK3oR-83" value="Main Menu" style="rounded=0;whiteSpace=wrap;html=1;fontStyle=1;fontSize=28;labelBackgroundColor=none;fillColor=#647687;fontColor=#ffffff;strokeColor=#314354;" vertex="1" parent="1">
          <mxGeometry x="770" y="-380" width="260" height="60" as="geometry" />
        </mxCell>
        <mxCell id="RS90X-QFE5c7pqsLK3oR-92" value="" style="edgeStyle=orthogonalEdgeStyle;rounded=0;orthogonalLoop=1;jettySize=auto;html=1;labelBackgroundColor=none;fontColor=default;" edge="1" parent="1" source="RS90X-QFE5c7pqsLK3oR-88" target="RS90X-QFE5c7pqsLK3oR-91">
          <mxGeometry relative="1" as="geometry" />
        </mxCell>
        <mxCell id="RS90X-QFE5c7pqsLK3oR-94" value="" style="edgeStyle=orthogonalEdgeStyle;rounded=0;orthogonalLoop=1;jettySize=auto;html=1;labelBackgroundColor=none;fontColor=default;" edge="1" parent="1" source="RS90X-QFE5c7pqsLK3oR-88" target="RS90X-QFE5c7pqsLK3oR-93">
          <mxGeometry relative="1" as="geometry" />
        </mxCell>
        <mxCell id="RS90X-QFE5c7pqsLK3oR-88" value="P&lt;div style=&quot;font-size: 18px;&quot;&gt;Payment Module&lt;/div&gt;" style="rounded=0;whiteSpace=wrap;html=1;fontStyle=1;fontSize=18;labelBackgroundColor=none;fillColor=#647687;fontColor=#ffffff;strokeColor=#314354;" vertex="1" parent="1">
          <mxGeometry x="700" y="-100" width="120" height="60" as="geometry" />
        </mxCell>
        <mxCell id="RS90X-QFE5c7pqsLK3oR-96" value="" style="edgeStyle=orthogonalEdgeStyle;rounded=0;orthogonalLoop=1;jettySize=auto;html=1;labelBackgroundColor=none;fontColor=default;" edge="1" parent="1" source="RS90X-QFE5c7pqsLK3oR-90" target="RS90X-QFE5c7pqsLK3oR-95">
          <mxGeometry relative="1" as="geometry" />
        </mxCell>
        <mxCell id="RS90X-QFE5c7pqsLK3oR-98" value="" style="edgeStyle=orthogonalEdgeStyle;rounded=0;orthogonalLoop=1;jettySize=auto;html=1;labelBackgroundColor=none;fontColor=default;" edge="1" parent="1" source="RS90X-QFE5c7pqsLK3oR-90" target="RS90X-QFE5c7pqsLK3oR-97">
          <mxGeometry relative="1" as="geometry" />
        </mxCell>
        <mxCell id="RS90X-QFE5c7pqsLK3oR-90" value="R&lt;div style=&quot;font-size: 18px;&quot;&gt;Repoort module&lt;/div&gt;" style="rounded=0;whiteSpace=wrap;html=1;fontStyle=1;fontSize=18;labelBackgroundColor=none;fillColor=#647687;fontColor=#ffffff;strokeColor=#314354;" vertex="1" parent="1">
          <mxGeometry x="970" y="-110" width="120" height="60" as="geometry" />
        </mxCell>
        <mxCell id="RS90X-QFE5c7pqsLK3oR-91" value="P&lt;div&gt;To Make Payment&lt;/div&gt;" style="ellipse;whiteSpace=wrap;html=1;rounded=0;fontStyle=1;labelBackgroundColor=none;fillColor=#6d8764;fontColor=#ffffff;strokeColor=#3A5431;" vertex="1" parent="1">
          <mxGeometry x="720" y="30" width="80" height="80" as="geometry" />
        </mxCell>
        <mxCell id="RS90X-QFE5c7pqsLK3oR-93" value="T&lt;div&gt;Display Total&amp;nbsp;&lt;/div&gt;&lt;div&gt;Amount to be paid&lt;/div&gt;" style="ellipse;whiteSpace=wrap;html=1;rounded=0;fontStyle=1;labelBackgroundColor=none;fillColor=#6d8764;fontColor=#ffffff;strokeColor=#3A5431;" vertex="1" parent="1">
          <mxGeometry x="520" y="-110" width="80" height="80" as="geometry" />
        </mxCell>
        <mxCell id="RS90X-QFE5c7pqsLK3oR-95" value="I&lt;div&gt;Invoice&lt;/div&gt;" style="ellipse;whiteSpace=wrap;html=1;rounded=0;fontStyle=1;labelBackgroundColor=none;fillColor=#6d8764;fontColor=#ffffff;strokeColor=#3A5431;" vertex="1" parent="1">
          <mxGeometry x="990" y="20" width="80" height="80" as="geometry" />
        </mxCell>
        <mxCell id="RS90X-QFE5c7pqsLK3oR-97" value="S&lt;div&gt;Summary&lt;/div&gt;" style="ellipse;whiteSpace=wrap;html=1;rounded=0;fontStyle=1;labelBackgroundColor=none;fillColor=#6d8764;fontColor=#ffffff;strokeColor=#3A5431;" vertex="1" parent="1">
          <mxGeometry x="1190" y="-120" width="80" height="80" as="geometry" />
        </mxCell>
        <mxCell id="RS90X-QFE5c7pqsLK3oR-100" value="Q&lt;div style=&quot;font-size: 18px;&quot;&gt;Quit Module&lt;/div&gt;" style="rounded=0;whiteSpace=wrap;html=1;fontStyle=1;fontSize=18;labelBackgroundColor=none;fillColor=#647687;fontColor=#ffffff;strokeColor=#314354;" vertex="1" parent="1">
          <mxGeometry x="1650" y="-180" width="120" height="60" as="geometry" />
        </mxCell>
        <mxCell id="RS90X-QFE5c7pqsLK3oR-101" value="USER" style="rounded=0;whiteSpace=wrap;html=1;fontStyle=1;fontSize=25;labelBackgroundColor=none;fillColor=#1ba1e2;strokeColor=#006EAF;fontColor=#ffffff;" vertex="1" parent="1">
          <mxGeometry x="800" y="-690" width="200" height="110" as="geometry" />
        </mxCell>
        <mxCell id="RS90X-QFE5c7pqsLK3oR-104" value="" style="shape=singleArrow;direction=south;whiteSpace=wrap;html=1;fontStyle=1;labelBackgroundColor=none;" vertex="1" parent="1">
          <mxGeometry x="870" y="-580" width="60" height="190" as="geometry" />
        </mxCell>
      </root>
    </mxGraphModel>
  </diagram>
</mxfile>
